<svg width="53" height="42" viewBox="0 0 53 42" fill="none" xmlns="http://www.w3.org/2000/svg">
<path fill-rule="evenodd" clip-rule="evenodd" d="M27 2.72585C26.1989 1.90689 25.0361 1.24177 23.7807 0.968668C22.068 0.596109 20.1001 0.939068 18.582 2.67407C17.0407 4.43547 16.7918 6.25638 17.1361 7.80597C17.4705 9.31061 18.3499 10.5127 19.0089 11.1717L26.4561 18.6188C26.7565 18.9192 27.2435 18.9192 27.544 18.6188L34.9911 11.1717C35.6501 10.5127 36.5295 9.31061 36.8639 7.80597C37.2082 6.25638 36.9593 4.43547 35.418 2.67407C33.8999 0.939069 31.932 0.596108 30.2193 0.968668C28.9639 1.24177 27.8012 1.90689 27 2.72585ZM23.4537 2.47199C22.1925 2.19765 20.8288 2.44262 19.7398 3.68717C18.5373 5.0614 18.3944 6.37614 18.638 7.47223C18.8915 8.61329 19.5799 9.56693 20.0968 10.0838L27 16.987L33.9032 10.0838C34.4201 9.56693 35.1085 8.61329 35.362 7.47223C35.6056 6.37614 35.4627 5.0614 34.2602 3.68717C33.1712 2.44262 31.8075 2.19765 30.5464 2.47199C29.2378 2.75664 28.124 3.58638 27.6596 4.3603C27.5206 4.592 27.2702 4.73377 27 4.73377C26.7298 4.73377 26.4794 4.592 26.3404 4.3603C25.8761 3.58638 24.7622 2.75664 23.4537 2.47199Z" fill="white"/>
<path d="M5.98286 28.636V29.524H2.34686V32.344H5.29886V33.232H2.34686V37H1.25486V28.636H5.98286ZM6.59373 33.688C6.59373 33.016 6.72973 32.428 7.00174 31.924C7.27374 31.412 7.64574 31.016 8.11773 30.736C8.59773 30.456 9.12973 30.316 9.71373 30.316C10.2897 30.316 10.7897 30.44 11.2137 30.688C11.6377 30.936 11.9537 31.248 12.1617 31.624V30.424H13.2657V37H12.1617V35.776C11.9457 36.16 11.6217 36.48 11.1897 36.736C10.7657 36.984 10.2697 37.108 9.70174 37.108C9.11774 37.108 8.58974 36.964 8.11773 36.676C7.64574 36.388 7.27374 35.984 7.00174 35.464C6.72973 34.944 6.59373 34.352 6.59373 33.688ZM12.1617 33.7C12.1617 33.204 12.0617 32.772 11.8617 32.404C11.6617 32.036 11.3897 31.756 11.0457 31.564C10.7097 31.364 10.3377 31.264 9.92974 31.264C9.52174 31.264 9.14974 31.36 8.81374 31.552C8.47774 31.744 8.20974 32.024 8.00974 32.392C7.80974 32.76 7.70974 33.192 7.70974 33.688C7.70974 34.192 7.80974 34.632 8.00974 35.008C8.20974 35.376 8.47774 35.66 8.81374 35.86C9.14974 36.052 9.52174 36.148 9.92974 36.148C10.3377 36.148 10.7097 36.052 11.0457 35.86C11.3897 35.66 11.6617 35.376 11.8617 35.008C12.0617 34.632 12.1617 34.196 12.1617 33.7ZM17.2591 35.992L19.2991 30.424H20.4631L17.8831 37H16.6111L14.0311 30.424H15.2071L17.2591 35.992ZM24.1057 37.108C23.4897 37.108 22.9297 36.968 22.4257 36.688C21.9297 36.408 21.5377 36.012 21.2497 35.5C20.9697 34.98 20.8297 34.38 20.8297 33.7C20.8297 33.028 20.9737 32.436 21.2617 31.924C21.5577 31.404 21.9577 31.008 22.4617 30.736C22.9657 30.456 23.5297 30.316 24.1537 30.316C24.7777 30.316 25.3417 30.456 25.8457 30.736C26.3497 31.008 26.7457 31.4 27.0337 31.912C27.3297 32.424 27.4777 33.02 27.4777 33.7C27.4777 34.38 27.3257 34.98 27.0217 35.5C26.7257 36.012 26.3217 36.408 25.8097 36.688C25.2977 36.968 24.7297 37.108 24.1057 37.108ZM24.1057 36.148C24.4977 36.148 24.8657 36.056 25.2097 35.872C25.5537 35.688 25.8297 35.412 26.0377 35.044C26.2537 34.676 26.3617 34.228 26.3617 33.7C26.3617 33.172 26.2577 32.724 26.0497 32.356C25.8417 31.988 25.5697 31.716 25.2337 31.54C24.8977 31.356 24.5337 31.264 24.1417 31.264C23.7417 31.264 23.3737 31.356 23.0377 31.54C22.7097 31.716 22.4457 31.988 22.2457 32.356C22.0457 32.724 21.9457 33.172 21.9457 33.7C21.9457 34.236 22.0417 34.688 22.2337 35.056C22.4337 35.424 22.6977 35.7 23.0257 35.884C23.3537 36.06 23.7137 36.148 24.1057 36.148ZM29.7055 31.492C29.8975 31.116 30.1695 30.824 30.5215 30.616C30.8815 30.408 31.3175 30.304 31.8295 30.304V31.432H31.5415C30.3175 31.432 29.7055 32.096 29.7055 33.424V37H28.6135V30.424H29.7055V31.492ZM33.354 29.356C33.146 29.356 32.97 29.284 32.826 29.14C32.682 28.996 32.61 28.82 32.61 28.612C32.61 28.404 32.682 28.228 32.826 28.084C32.97 27.94 33.146 27.868 33.354 27.868C33.554 27.868 33.722 27.94 33.858 28.084C34.002 28.228 34.074 28.404 34.074 28.612C34.074 28.82 34.002 28.996 33.858 29.14C33.722 29.284 33.554 29.356 33.354 29.356ZM33.882 30.424V37H32.79V30.424H33.882ZM36.7751 31.324V35.2C36.7751 35.52 36.8431 35.748 36.9791 35.884C37.1151 36.012 37.3511 36.076 37.6871 36.076H38.4911V37H37.5071C36.8991 37 36.4431 36.86 36.1391 36.58C35.8351 36.3 35.6831 35.84 35.6831 35.2V31.324H34.8311V30.424H35.6831V28.768H36.7751V30.424H38.4911V31.324H36.7751ZM39.1062 33.688C39.1062 33.016 39.2422 32.428 39.5142 31.924C39.7862 31.412 40.1582 31.016 40.6302 30.736C41.1102 30.456 41.6422 30.316 42.2262 30.316C42.8022 30.316 43.3022 30.44 43.7262 30.688C44.1502 30.936 44.4662 31.248 44.6742 31.624V30.424H45.7782V37H44.6742V35.776C44.4582 36.16 44.1342 36.48 43.7022 36.736C43.2782 36.984 42.7822 37.108 42.2142 37.108C41.6302 37.108 41.1022 36.964 40.6302 36.676C40.1582 36.388 39.7862 35.984 39.5142 35.464C39.2422 34.944 39.1062 34.352 39.1062 33.688ZM44.6742 33.7C44.6742 33.204 44.5742 32.772 44.3742 32.404C44.1742 32.036 43.9022 31.756 43.5582 31.564C43.2222 31.364 42.8502 31.264 42.4422 31.264C42.0342 31.264 41.6622 31.36 41.3262 31.552C40.9902 31.744 40.7222 32.024 40.5222 32.392C40.3222 32.76 40.2222 33.192 40.2222 33.688C40.2222 34.192 40.3222 34.632 40.5222 35.008C40.7222 35.376 40.9902 35.66 41.3262 35.86C41.6622 36.052 42.0342 36.148 42.4422 36.148C42.8502 36.148 43.2222 36.052 43.5582 35.86C43.9022 35.66 44.1742 35.376 44.3742 35.008C44.5742 34.632 44.6742 34.196 44.6742 33.7ZM49.6516 37.108C49.1476 37.108 48.6956 37.024 48.2956 36.856C47.8956 36.68 47.5796 36.44 47.3476 36.136C47.1156 35.824 46.9876 35.468 46.9636 35.068H48.0916C48.1236 35.396 48.2756 35.664 48.5476 35.872C48.8276 36.08 49.1916 36.184 49.6396 36.184C50.0556 36.184 50.3836 36.092 50.6236 35.908C50.8636 35.724 50.9836 35.492 50.9836 35.212C50.9836 34.924 50.8556 34.712 50.5996 34.576C50.3436 34.432 49.9476 34.292 49.4116 34.156C48.9236 34.028 48.5236 33.9 48.2116 33.772C47.9076 33.636 47.6436 33.44 47.4196 33.184C47.2036 32.92 47.0956 32.576 47.0956 32.152C47.0956 31.816 47.1956 31.508 47.3956 31.228C47.5956 30.948 47.8796 30.728 48.2476 30.568C48.6156 30.4 49.0356 30.316 49.5076 30.316C50.2356 30.316 50.8236 30.5 51.2716 30.868C51.7196 31.236 51.9596 31.74 51.9916 32.38H50.8996C50.8756 32.036 50.7356 31.76 50.4796 31.552C50.2316 31.344 49.8956 31.24 49.4716 31.24C49.0796 31.24 48.7676 31.324 48.5356 31.492C48.3036 31.66 48.1876 31.88 48.1876 32.152C48.1876 32.368 48.2556 32.548 48.3916 32.692C48.5356 32.828 48.7116 32.94 48.9196 33.028C49.1356 33.108 49.4316 33.2 49.8076 33.304C50.2796 33.432 50.6636 33.56 50.9596 33.688C51.2556 33.808 51.5076 33.992 51.7156 34.24C51.9316 34.488 52.0436 34.812 52.0516 35.212C52.0516 35.572 51.9516 35.896 51.7516 36.184C51.5516 36.472 51.2676 36.7 50.8996 36.868C50.5396 37.028 50.1236 37.108 49.6516 37.108Z" fill="white"/>
</svg>
