<svg width="268" height="21" viewBox="0 0 268 21" fill="none" xmlns="http://www.w3.org/2000/svg">
<path d="M0 11.5H110M158 11.5H268" stroke="#6429CD"/>
<path d="M133.919 18.189C132.799 18.189 131.791 17.944 130.895 17.454C129.999 16.95 129.292 16.243 128.774 15.333C128.27 14.423 128.018 13.373 128.018 12.183C128.018 10.993 128.277 9.943 128.795 9.033C129.327 8.123 130.048 7.423 130.958 6.933C131.868 6.429 132.883 6.177 134.003 6.177C135.123 6.177 136.138 6.429 137.048 6.933C137.958 7.423 138.672 8.123 139.19 9.033C139.722 9.943 139.988 10.993 139.988 12.183C139.988 13.373 139.715 14.423 139.169 15.333C138.637 16.243 137.909 16.95 136.985 17.454C136.075 17.944 135.053 18.189 133.919 18.189ZM133.919 15.627C134.451 15.627 134.948 15.501 135.41 15.249C135.886 14.983 136.264 14.591 136.544 14.073C136.824 13.555 136.964 12.925 136.964 12.183C136.964 11.077 136.67 10.23 136.082 9.642C135.508 9.04 134.801 8.739 133.961 8.739C133.121 8.739 132.414 9.04 131.84 9.642C131.28 10.23 131 11.077 131 12.183C131 13.289 131.273 14.143 131.819 14.745C132.379 15.333 133.079 15.627 133.919 15.627Z" fill="white"/>
</svg>
