<svg width="49" height="14" viewBox="0 0 49 14" fill="none" xmlns="http://www.w3.org/2000/svg">
<path d="M13.712 1.768V13H10.976V6.264L8.464 13H6.256L3.728 6.248V13H0.992V1.768H4.224L7.376 9.544L10.496 1.768H13.712ZM24.4955 4.072V13H21.7595V11.784C21.4822 12.1787 21.1035 12.4987 20.6235 12.744C20.1542 12.9787 19.6315 13.096 19.0555 13.096C18.3728 13.096 17.7702 12.9467 17.2475 12.648C16.7248 12.3387 16.3195 11.896 16.0315 11.32C15.7435 10.744 15.5995 10.0667 15.5995 9.288V4.072H18.3195V8.92C18.3195 9.51733 18.4742 9.98133 18.7835 10.312C19.0928 10.6427 19.5088 10.808 20.0315 10.808C20.5648 10.808 20.9862 10.6427 21.2955 10.312C21.6048 9.98133 21.7595 9.51733 21.7595 8.92V4.072H24.4955ZM30.0928 13.128C29.3141 13.128 28.6208 12.9947 28.0128 12.728C27.4048 12.4613 26.9248 12.0987 26.5728 11.64C26.2208 11.1707 26.0234 10.648 25.9808 10.072H28.6848C28.7168 10.3813 28.8608 10.632 29.1168 10.824C29.3728 11.016 29.6874 11.112 30.0608 11.112C30.4021 11.112 30.6634 11.048 30.8448 10.92C31.0368 10.7813 31.1328 10.6053 31.1328 10.392C31.1328 10.136 30.9994 9.94933 30.7328 9.832C30.4661 9.704 30.0341 9.56533 29.4368 9.416C28.7968 9.26667 28.2634 9.112 27.8368 8.952C27.4101 8.78133 27.0421 8.52 26.7328 8.168C26.4234 7.80533 26.2688 7.32 26.2688 6.712C26.2688 6.2 26.4074 5.736 26.6848 5.32C26.9728 4.89333 27.3888 4.55733 27.9328 4.312C28.4874 4.06667 29.1434 3.944 29.9008 3.944C31.0208 3.944 31.9008 4.22133 32.5408 4.776C33.1914 5.33067 33.5648 6.06667 33.6608 6.984H31.1328C31.0901 6.67467 30.9514 6.42933 30.7168 6.248C30.4928 6.06667 30.1941 5.976 29.8208 5.976C29.5008 5.976 29.2554 6.04 29.0848 6.168C28.9141 6.28533 28.8288 6.45067 28.8288 6.664C28.8288 6.92 28.9621 7.112 29.2288 7.24C29.5061 7.368 29.9328 7.496 30.5088 7.624C31.1701 7.79467 31.7088 7.96533 32.1248 8.136C32.5408 8.296 32.9034 8.56267 33.2128 8.936C33.5328 9.29867 33.6981 9.78933 33.7088 10.408C33.7088 10.9307 33.5594 11.4 33.2608 11.816C32.9728 12.2213 32.5514 12.5413 31.9968 12.776C31.4528 13.0107 30.8181 13.128 30.0928 13.128ZM36.7586 3.144C36.2786 3.144 35.884 3.00533 35.5746 2.728C35.276 2.44 35.1266 2.088 35.1266 1.672C35.1266 1.24533 35.276 0.893333 35.5746 0.615999C35.884 0.327999 36.2786 0.183999 36.7586 0.183999C37.228 0.183999 37.612 0.327999 37.9106 0.615999C38.22 0.893333 38.3746 1.24533 38.3746 1.672C38.3746 2.088 38.22 2.44 37.9106 2.728C37.612 3.00533 37.228 3.144 36.7586 3.144ZM38.1186 4.072V13H35.3826V4.072H38.1186ZM39.5574 8.536C39.5574 7.608 39.744 6.79733 40.1174 6.104C40.5014 5.41067 41.0294 4.87733 41.7014 4.504C42.384 4.13067 43.1627 3.944 44.0374 3.944C45.1574 3.944 46.0907 4.23733 46.8374 4.824C47.5947 5.41067 48.0907 6.23733 48.3254 7.304H45.4134C45.168 6.62133 44.6934 6.28 43.9894 6.28C43.488 6.28 43.088 6.47733 42.7894 6.872C42.4907 7.256 42.3414 7.81067 42.3414 8.536C42.3414 9.26133 42.4907 9.82133 42.7894 10.216C43.088 10.6 43.488 10.792 43.9894 10.792C44.6934 10.792 45.168 10.4507 45.4134 9.768H48.3254C48.0907 10.8133 47.5947 11.6347 46.8374 12.232C46.08 12.8293 45.1467 13.128 44.0374 13.128C43.1627 13.128 42.384 12.9413 41.7014 12.568C41.0294 12.1947 40.5014 11.6613 40.1174 10.968C39.744 10.2747 39.5574 9.464 39.5574 8.536Z" fill="white"/>
</svg>
