<svg width="44" height="42" viewBox="0 0 44 42" fill="none" xmlns="http://www.w3.org/2000/svg">
<g clip-path="url(#clip0_1_713)">
<path fill-rule="evenodd" clip-rule="evenodd" d="M16.8717 3.87174C18.4971 2.24643 20.7015 1.33333 23 1.33333C25.2985 1.33333 27.5029 2.24643 29.1283 3.87174C30.7536 5.49706 31.6667 7.70146 31.6667 10V11.4076H29.2222C28.4953 11.4076 27.7982 11.6963 27.2842 12.2103C26.7702 12.7243 26.4815 13.4214 26.4815 14.1483V17.2594C26.4815 17.9863 26.7702 18.6834 27.2842 19.1974C27.7982 19.7114 28.4953 20.0001 29.2222 20.0001H30.2593C30.9862 20.0001 31.6833 19.7114 32.1973 19.1974C32.7112 18.6834 33 17.9863 33 17.2594V10C33 7.34784 31.9464 4.8043 30.0711 2.92893C28.1957 1.05357 25.6522 0 23 0C20.3478 0 17.8043 1.05357 15.9289 2.92893C14.0536 4.8043 13 7.34784 13 10V17.2594C13 17.9863 13.2888 18.6834 13.8027 19.1974C14.3167 19.7114 15.0139 20.0001 15.7407 20.0001H16.7778C17.5047 20.0001 18.2018 19.7114 18.7158 19.1974C19.2298 18.6834 19.5185 17.9863 19.5185 17.2594V14.1483C19.5185 13.4214 19.2298 12.7243 18.7158 12.2103C18.2018 11.6963 17.5047 11.4076 16.7778 11.4076H14.3333V10C14.3333 7.70146 15.2464 5.49706 16.8717 3.87174ZM14.3333 12.7409V17.2594C14.3333 17.6327 14.4816 17.9907 14.7456 18.2546C15.0095 18.5185 15.3675 18.6668 15.7407 18.6668H16.7778C17.151 18.6668 17.509 18.5185 17.773 18.2546C18.0369 17.9907 18.1852 17.6327 18.1852 17.2594V14.1483C18.1852 13.775 18.0369 13.417 17.773 13.1531C17.509 12.8892 17.151 12.7409 16.7778 12.7409H14.3333ZM31.6667 12.7409H29.2222C28.849 12.7409 28.491 12.8892 28.227 13.1531C27.9631 13.417 27.8148 13.775 27.8148 14.1483V17.2594C27.8148 17.6327 27.9631 17.9907 28.227 18.2546C28.491 18.5185 28.849 18.6668 29.2222 18.6668H30.2593C30.6325 18.6668 30.9905 18.5185 31.2544 18.2546C31.5184 17.9907 31.6667 17.6327 31.6667 17.2594V12.7409Z" fill="white"/>
</g>
<path d="M10.6629 28.576V37H8.61091V31.948L6.72691 37H5.07091L3.17491 31.936V37H1.12291V28.576H3.54691L5.91091 34.408L8.25091 28.576H10.6629ZM18.4505 30.304V37H16.3985V36.088C16.1905 36.384 15.9065 36.624 15.5465 36.808C15.1945 36.984 14.8025 37.072 14.3705 37.072C13.8585 37.072 13.4065 36.96 13.0145 36.736C12.6225 36.504 12.3185 36.172 12.1025 35.74C11.8865 35.308 11.7785 34.8 11.7785 34.216V30.304H13.8185V33.94C13.8185 34.388 13.9345 34.736 14.1665 34.984C14.3985 35.232 14.7105 35.356 15.1025 35.356C15.5025 35.356 15.8185 35.232 16.0505 34.984C16.2825 34.736 16.3985 34.388 16.3985 33.94V30.304H18.4505ZM16.5425 28.636L13.6505 29.848V28.432L16.5425 27.04V28.636ZM22.3485 37.096C21.7645 37.096 21.2445 36.996 20.7885 36.796C20.3325 36.596 19.9725 36.324 19.7085 35.98C19.4445 35.628 19.2965 35.236 19.2645 34.804H21.2925C21.3165 35.036 21.4245 35.224 21.6165 35.368C21.8085 35.512 22.0445 35.584 22.3245 35.584C22.5805 35.584 22.7765 35.536 22.9125 35.44C23.0565 35.336 23.1285 35.204 23.1285 35.044C23.1285 34.852 23.0285 34.712 22.8285 34.624C22.6285 34.528 22.3045 34.424 21.8565 34.312C21.3765 34.2 20.9765 34.084 20.6565 33.964C20.3365 33.836 20.0605 33.64 19.8285 33.376C19.5965 33.104 19.4805 32.74 19.4805 32.284C19.4805 31.9 19.5845 31.552 19.7925 31.24C20.0085 30.92 20.3205 30.668 20.7285 30.484C21.1445 30.3 21.6365 30.208 22.2045 30.208C23.0445 30.208 23.7045 30.416 24.1845 30.832C24.6725 31.248 24.9525 31.8 25.0245 32.488H23.1285C23.0965 32.256 22.9925 32.072 22.8165 31.936C22.6485 31.8 22.4245 31.732 22.1445 31.732C21.9045 31.732 21.7205 31.78 21.5925 31.876C21.4645 31.964 21.4005 32.088 21.4005 32.248C21.4005 32.44 21.5005 32.584 21.7005 32.68C21.9085 32.776 22.2285 32.872 22.6605 32.968C23.1565 33.096 23.5605 33.224 23.8725 33.352C24.1845 33.472 24.4565 33.672 24.6885 33.952C24.9285 34.224 25.0525 34.592 25.0605 35.056C25.0605 35.448 24.9485 35.8 24.7245 36.112C24.5085 36.416 24.1925 36.656 23.7765 36.832C23.3685 37.008 22.8925 37.096 22.3485 37.096ZM27.0479 29.608C26.6879 29.608 26.3919 29.504 26.1599 29.296C25.9359 29.08 25.8239 28.816 25.8239 28.504C25.8239 28.184 25.9359 27.92 26.1599 27.712C26.3919 27.496 26.6879 27.388 27.0479 27.388C27.3999 27.388 27.6879 27.496 27.9119 27.712C28.1439 27.92 28.2599 28.184 28.2599 28.504C28.2599 28.816 28.1439 29.08 27.9119 29.296C27.6879 29.504 27.3999 29.608 27.0479 29.608ZM28.0679 30.304V37H26.0159V30.304H28.0679ZM28.8469 33.652C28.8469 32.956 28.9869 32.348 29.2669 31.828C29.5549 31.308 29.9509 30.908 30.4549 30.628C30.9669 30.348 31.5509 30.208 32.2069 30.208C33.0469 30.208 33.7469 30.428 34.3069 30.868C34.8749 31.308 35.2469 31.928 35.4229 32.728H33.2389C33.0549 32.216 32.6989 31.96 32.1709 31.96C31.7949 31.96 31.4949 32.108 31.2709 32.404C31.0469 32.692 30.9349 33.108 30.9349 33.652C30.9349 34.196 31.0469 34.616 31.2709 34.912C31.4949 35.2 31.7949 35.344 32.1709 35.344C32.6989 35.344 33.0549 35.088 33.2389 34.576H35.4229C35.2469 35.36 34.8749 35.976 34.3069 36.424C33.7389 36.872 33.0389 37.096 32.2069 37.096C31.5509 37.096 30.9669 36.956 30.4549 36.676C29.9509 36.396 29.5549 35.996 29.2669 35.476C28.9869 34.956 28.8469 34.348 28.8469 33.652ZM35.8126 33.64C35.8126 32.952 35.9406 32.348 36.1966 31.828C36.4606 31.308 36.8166 30.908 37.2646 30.628C37.7126 30.348 38.2126 30.208 38.7646 30.208C39.2366 30.208 39.6486 30.304 40.0006 30.496C40.3606 30.688 40.6366 30.94 40.8286 31.252V30.304H42.8806V37H40.8286V36.052C40.6286 36.364 40.3486 36.616 39.9886 36.808C39.6366 37 39.2246 37.096 38.7526 37.096C38.2086 37.096 37.7126 36.956 37.2646 36.676C36.8166 36.388 36.4606 35.984 36.1966 35.464C35.9406 34.936 35.8126 34.328 35.8126 33.64ZM40.8286 33.652C40.8286 33.14 40.6846 32.736 40.3966 32.44C40.1166 32.144 39.7726 31.996 39.3646 31.996C38.9566 31.996 38.6086 32.144 38.3206 32.44C38.0406 32.728 37.9006 33.128 37.9006 33.64C37.9006 34.152 38.0406 34.56 38.3206 34.864C38.6086 35.16 38.9566 35.308 39.3646 35.308C39.7726 35.308 40.1166 35.16 40.3966 34.864C40.6846 34.568 40.8286 34.164 40.8286 33.652Z" fill="white"/>
<defs>
<clipPath id="clip0_1_713">
<rect width="20" height="20" fill="white" transform="translate(13)"/>
</clipPath>
</defs>
</svg>
