<svg width="85" height="48" viewBox="0 0 85 48" fill="none" xmlns="http://www.w3.org/2000/svg">
<path d="M11.537 5.004C11.537 5.858 11.341 6.642 10.949 7.356C10.557 8.056 9.955 8.623 9.143 9.057C8.331 9.491 7.323 9.708 6.119 9.708H3.893V15H0.302V0.258H6.119C7.295 0.258 8.289 0.460999 9.101 0.866999C9.913 1.273 10.522 1.833 10.928 2.547C11.334 3.261 11.537 4.08 11.537 5.004ZM5.846 6.852C6.532 6.852 7.043 6.691 7.379 6.369C7.715 6.047 7.883 5.592 7.883 5.004C7.883 4.416 7.715 3.961 7.379 3.639C7.043 3.317 6.532 3.156 5.846 3.156H3.893V6.852H5.846ZM16.9975 5.235C17.4175 4.591 17.9425 4.087 18.5725 3.723C19.2025 3.345 19.9025 3.156 20.6725 3.156V6.957H19.6855C18.7895 6.957 18.1175 7.153 17.6695 7.545C17.2215 7.923 16.9975 8.595 16.9975 9.561V15H13.4065V3.282H16.9975V5.235ZM21.6749 9.12C21.6749 7.916 21.8989 6.859 22.3469 5.949C22.8089 5.039 23.4319 4.339 24.2159 3.849C24.9999 3.359 25.8749 3.114 26.8409 3.114C27.6669 3.114 28.3879 3.282 29.0039 3.618C29.6339 3.954 30.1169 4.395 30.4529 4.941V3.282H34.0439V15H30.4529V13.341C30.1029 13.887 29.6129 14.328 28.9829 14.664C28.3669 15 27.6459 15.168 26.8199 15.168C25.8679 15.168 24.9999 14.923 24.2159 14.433C23.4319 13.929 22.8089 13.222 22.3469 12.312C21.8989 11.388 21.6749 10.324 21.6749 9.12ZM30.4529 9.141C30.4529 8.245 30.2009 7.538 29.6969 7.02C29.2069 6.502 28.6049 6.243 27.8909 6.243C27.1769 6.243 26.5679 6.502 26.0639 7.02C25.5739 7.524 25.3289 8.224 25.3289 9.12C25.3289 10.016 25.5739 10.73 26.0639 11.262C26.5679 11.78 27.1769 12.039 27.8909 12.039C28.6049 12.039 29.2069 11.78 29.6969 11.262C30.2009 10.744 30.4529 10.037 30.4529 9.141ZM41.0938 3.114C41.9198 3.114 42.6408 3.282 43.2568 3.618C43.8868 3.954 44.3698 4.395 44.7058 4.941V3.282H48.2968V14.979C48.2968 16.057 48.0798 17.03 47.6458 17.898C47.2258 18.78 46.5748 19.48 45.6928 19.998C44.8248 20.516 43.7398 20.775 42.4378 20.775C40.7018 20.775 39.2948 20.362 38.2168 19.536C37.1388 18.724 36.5228 17.618 36.3688 16.218H39.9178C40.0298 16.666 40.2958 17.016 40.7158 17.268C41.1358 17.534 41.6538 17.667 42.2698 17.667C43.0118 17.667 43.5998 17.45 44.0338 17.016C44.4818 16.596 44.7058 15.917 44.7058 14.979V13.32C44.3558 13.866 43.8728 14.314 43.2568 14.664C42.6408 15 41.9198 15.168 41.0938 15.168C40.1278 15.168 39.2528 14.923 38.4688 14.433C37.6848 13.929 37.0618 13.222 36.5998 12.312C36.1518 11.388 35.9278 10.324 35.9278 9.12C35.9278 7.916 36.1518 6.859 36.5998 5.949C37.0618 5.039 37.6848 4.339 38.4688 3.849C39.2528 3.359 40.1278 3.114 41.0938 3.114ZM44.7058 9.141C44.7058 8.245 44.4538 7.538 43.9498 7.02C43.4598 6.502 42.8578 6.243 42.1438 6.243C41.4298 6.243 40.8208 6.502 40.3168 7.02C39.8268 7.524 39.5818 8.224 39.5818 9.12C39.5818 10.016 39.8268 10.73 40.3168 11.262C40.8208 11.78 41.4298 12.039 42.1438 12.039C42.8578 12.039 43.4598 11.78 43.9498 11.262C44.4538 10.744 44.7058 10.037 44.7058 9.141ZM65.8468 3.156C67.3028 3.156 68.4578 3.597 69.3118 4.479C70.1798 5.361 70.6138 6.586 70.6138 8.154V15H67.0438V8.637C67.0438 7.881 66.8408 7.3 66.4348 6.894C66.0428 6.474 65.4968 6.264 64.7968 6.264C64.0968 6.264 63.5438 6.474 63.1378 6.894C62.7458 7.3 62.5498 7.881 62.5498 8.637V15H58.9798V8.637C58.9798 7.881 58.7768 7.3 58.3708 6.894C57.9788 6.474 57.4328 6.264 56.7328 6.264C56.0328 6.264 55.4798 6.474 55.0738 6.894C54.6818 7.3 54.4858 7.881 54.4858 8.637V15H50.8948V3.282H54.4858V4.752C54.8498 4.262 55.3258 3.877 55.9138 3.597C56.5018 3.303 57.1668 3.156 57.9088 3.156C58.7908 3.156 59.5748 3.345 60.2608 3.723C60.9608 4.101 61.5068 4.64 61.8988 5.34C62.3048 4.696 62.8578 4.171 63.5578 3.765C64.2578 3.359 65.0208 3.156 65.8468 3.156ZM72.4112 9.12C72.4112 7.916 72.6352 6.859 73.0832 5.949C73.5452 5.039 74.1682 4.339 74.9522 3.849C75.7362 3.359 76.6112 3.114 77.5772 3.114C78.4032 3.114 79.1242 3.282 79.7402 3.618C80.3702 3.954 80.8532 4.395 81.1892 4.941V3.282H84.7802V15H81.1892V13.341C80.8392 13.887 80.3492 14.328 79.7192 14.664C79.1032 15 78.3822 15.168 77.5562 15.168C76.6042 15.168 75.7362 14.923 74.9522 14.433C74.1682 13.929 73.5452 13.222 73.0832 12.312C72.6352 11.388 72.4112 10.324 72.4112 9.12ZM81.1892 9.141C81.1892 8.245 80.9372 7.538 80.4332 7.02C79.9432 6.502 79.3412 6.243 78.6272 6.243C77.9132 6.243 77.3042 6.502 76.8002 7.02C76.3102 7.524 76.0652 8.224 76.0652 9.12C76.0652 10.016 76.3102 10.73 76.8002 11.262C77.3042 11.78 77.9132 12.039 78.6272 12.039C79.3412 12.039 79.9432 11.78 80.4332 11.262C80.9372 10.744 81.1892 10.037 81.1892 9.141ZM15.254 35.156C16.71 35.156 17.865 35.597 18.719 36.479C19.587 37.361 20.021 38.586 20.021 40.154V47H16.451V40.637C16.451 39.881 16.248 39.3 15.842 38.894C15.45 38.474 14.904 38.264 14.204 38.264C13.504 38.264 12.951 38.474 12.545 38.894C12.153 39.3 11.957 39.881 11.957 40.637V47H8.387V40.637C8.387 39.881 8.184 39.3 7.778 38.894C7.386 38.474 6.84 38.264 6.14 38.264C5.44 38.264 4.887 38.474 4.481 38.894C4.089 39.3 3.893 39.881 3.893 40.637V47H0.302V35.282H3.893V36.752C4.257 36.262 4.733 35.877 5.321 35.597C5.909 35.303 6.574 35.156 7.316 35.156C8.198 35.156 8.982 35.345 9.668 35.723C10.368 36.101 10.914 36.64 11.306 37.34C11.712 36.696 12.265 36.171 12.965 35.765C13.665 35.359 14.428 35.156 15.254 35.156ZM34.1035 35.282V47H30.5125V45.404C30.1485 45.922 29.6515 46.342 29.0215 46.664C28.4055 46.972 27.7195 47.126 26.9635 47.126C26.0675 47.126 25.2765 46.93 24.5905 46.538C23.9045 46.132 23.3725 45.551 22.9945 44.795C22.6165 44.039 22.4275 43.15 22.4275 42.128V35.282H25.9975V41.645C25.9975 42.429 26.2005 43.038 26.6065 43.472C27.0125 43.906 27.5585 44.123 28.2445 44.123C28.9445 44.123 29.4975 43.906 29.9035 43.472C30.3095 43.038 30.5125 42.429 30.5125 41.645V35.282H34.1035ZM41.4499 47.168C40.4279 47.168 39.5179 46.993 38.7199 46.643C37.9219 46.293 37.2919 45.817 36.8299 45.215C36.3679 44.599 36.1089 43.913 36.0529 43.157H39.6019C39.6439 43.563 39.8329 43.892 40.1689 44.144C40.5049 44.396 40.9179 44.522 41.4079 44.522C41.8559 44.522 42.1989 44.438 42.4369 44.27C42.6889 44.088 42.8149 43.857 42.8149 43.577C42.8149 43.241 42.6399 42.996 42.2899 42.842C41.9399 42.674 41.3729 42.492 40.5889 42.296C39.7489 42.1 39.0489 41.897 38.4889 41.687C37.9289 41.463 37.4459 41.12 37.0399 40.658C36.6339 40.182 36.4309 39.545 36.4309 38.747C36.4309 38.075 36.6129 37.466 36.9769 36.92C37.3549 36.36 37.9009 35.919 38.6149 35.597C39.3429 35.275 40.2039 35.114 41.1979 35.114C42.6679 35.114 43.8229 35.478 44.6629 36.206C45.5169 36.934 46.0069 37.9 46.1329 39.104H42.8149C42.7589 38.698 42.5769 38.376 42.2689 38.138C41.9749 37.9 41.5829 37.781 41.0929 37.781C40.6729 37.781 40.3509 37.865 40.1269 38.033C39.9029 38.187 39.7909 38.404 39.7909 38.684C39.7909 39.02 39.9659 39.272 40.3159 39.44C40.6799 39.608 41.2399 39.776 41.9959 39.944C42.8639 40.168 43.5709 40.392 44.1169 40.616C44.6629 40.826 45.1389 41.176 45.5449 41.666C45.9649 42.142 46.1819 42.786 46.1959 43.598C46.1959 44.284 45.9999 44.9 45.6079 45.446C45.2299 45.978 44.6769 46.398 43.9489 46.706C43.2349 47.014 42.4019 47.168 41.4499 47.168ZM50.1988 34.064C49.5688 34.064 49.0508 33.882 48.6448 33.518C48.2528 33.14 48.0568 32.678 48.0568 32.132C48.0568 31.572 48.2528 31.11 48.6448 30.746C49.0508 30.368 49.5688 30.179 50.1988 30.179C50.8148 30.179 51.3188 30.368 51.7108 30.746C52.1168 31.11 52.3198 31.572 52.3198 32.132C52.3198 32.678 52.1168 33.14 51.7108 33.518C51.3188 33.882 50.8148 34.064 50.1988 34.064ZM51.9838 35.282V47H48.3928V35.282H51.9838ZM53.8722 41.141C53.8722 39.923 54.1172 38.859 54.6072 37.949C55.1112 37.039 55.8042 36.339 56.6862 35.849C57.5822 35.359 58.6042 35.114 59.7522 35.114C61.2222 35.114 62.4472 35.499 63.4272 36.269C64.4212 37.039 65.0722 38.124 65.3802 39.524H61.5582C61.2362 38.628 60.6132 38.18 59.6892 38.18C59.0312 38.18 58.5062 38.439 58.1142 38.957C57.7222 39.461 57.5262 40.189 57.5262 41.141C57.5262 42.093 57.7222 42.828 58.1142 43.346C58.5062 43.85 59.0312 44.102 59.6892 44.102C60.6132 44.102 61.2362 43.654 61.5582 42.758H65.3802C65.0722 44.13 64.4212 45.208 63.4272 45.992C62.4332 46.776 61.2082 47.168 59.7522 47.168C58.6042 47.168 57.5822 46.923 56.6862 46.433C55.8042 45.943 55.1112 45.243 54.6072 44.333C54.1172 43.423 53.8722 42.359 53.8722 41.141Z" fill="white"/>
</svg>
